<?xml version="1.0" encoding="UTF-8" standalone="no"?>
<!-- Created with Inkscape (http://www.inkscape.org/) -->

<svg
   xmlns:dc="http://purl.org/dc/elements/1.1/"
   xmlns:cc="http://creativecommons.org/ns#"
   xmlns:rdf="http://www.w3.org/1999/02/22-rdf-syntax-ns#"
   xmlns:svg="http://www.w3.org/2000/svg"
   xmlns="http://www.w3.org/2000/svg"
   xmlns:sodipodi="http://sodipodi.sourceforge.net/DTD/sodipodi-0.dtd"
   xmlns:inkscape="http://www.inkscape.org/namespaces/inkscape"
   width="39.619965mm"
   height="39.620491mm"
   viewBox="0 0 39.619965 39.620491"
   version="1.1"
   id="svg8232"
   inkscape:version="0.92.2 2405546, 2018-03-11"
   sodipodi:docname="rust-gear.svg">
  <defs
     id="defs8226" />
  <sodipodi:namedview
     id="base"
     pagecolor="#ffffff"
     bordercolor="#666666"
     borderopacity="1.0"
     inkscape:pageopacity="0.0"
     inkscape:pageshadow="2"
     inkscape:zoom="22.4"
     inkscape:cx="42.623615"
     inkscape:cy="86.937696"
     inkscape:document-units="mm"
     inkscape:current-layer="layer1"
     showgrid="false"
     fit-margin-left="1"
     fit-margin-top="1"
     fit-margin-right="1"
     fit-margin-bottom="1"
     inkscape:window-width="1600"
     inkscape:window-height="791"
     inkscape:window-x="0"
     inkscape:window-y="31"
     inkscape:window-maximized="1" />
  <metadata
     id="metadata8229">
    <rdf:RDF>
      <cc:Work
         rdf:about="">
        <dc:format>image/svg+xml</dc:format>
        <dc:type
           rdf:resource="http://purl.org/dc/dcmitype/StillImage" />
        <dc:title></dc:title>
      </cc:Work>
    </rdf:RDF>
  </metadata>
  <g
     inkscape:label="Layer 1"
     inkscape:groupmode="layer"
     id="layer1"
     transform="translate(-66.368604,-127.5112)">
    <path
       inkscape:connector-curvature="0"
       style="stroke-width:0.35943398"
       d="m 86.179864,128.51121 c -0.188344,0 -0.363503,0.0974 -0.461989,0.25735 l -0.977718,1.57974 c -0.153836,0.0126 -0.307676,0.0281 -0.460435,0.045 l -1.26659,-1.35858 c -0.128318,-0.1373 -0.318423,-0.19856 -0.502811,-0.16226 -0.185111,0.037 -0.337818,0.16629 -0.403593,0.34313 l -0.648539,1.73529 c -0.150241,0.0431 -0.299072,0.0892 -0.447519,0.13591 l -1.503783,-1.08262 c -0.152768,-0.11034 -0.352102,-0.13357 -0.526068,-0.061 -0.173607,0.0719 -0.298469,0.2295 -0.328661,0.41496 l -0.298174,1.82987 c -0.138023,0.0715 -0.274601,0.14502 -0.410827,0.22014 l -1.687235,-0.76895 c -0.171452,-0.0784 -0.371107,-0.0626 -0.5271,0.0424 -0.156715,0.10423 -0.248518,0.2833 -0.241329,0.47129 l 0.06459,1.85673 c -0.120049,0.096 -0.239035,0.1938 -0.356568,0.29301 l -1.808157,-0.42633 c -0.183671,-0.0428 -0.376542,0.0122 -0.509529,0.14521 -0.133708,0.13335 -0.187828,0.32534 -0.144696,0.50901 l 0.425815,1.80867 c -0.09885,0.11718 -0.196519,0.236 -0.292489,0.35606 l -1.856734,-0.0646 c -0.187264,-0.005 -0.366178,0.0841 -0.470773,0.24081 -0.104955,0.156 -0.120889,0.35633 -0.04289,0.52813 l 0.769464,1.68724 c -0.07477,0.13551 -0.149125,0.27208 -0.22066,0.41083 l -1.829345,0.29765 c -0.185827,0.0302 -0.342715,0.1547 -0.414962,0.32867 -0.07189,0.17432 -0.04866,0.37279 0.06098,0.52555 l 1.082622,1.50326 c -0.04709,0.14845 -0.09279,0.29779 -0.135911,0.44804 l -1.735294,0.64854 c -0.176123,0.0658 -0.305951,0.21848 -0.342614,0.40359 -0.03666,0.18475 0.02461,0.37465 0.162263,0.50333 l 1.35754,1.26607 c -0.01688,0.15277 -0.03202,0.30644 -0.04496,0.45992 l -1.579231,0.97772 c -0.159946,0.0988 -0.25735,0.27328 -0.25735,0.46199 0,0.1887 0.0974,0.3635 0.25735,0.46198 l 1.579231,0.97772 c 0.01288,0.15384 0.02806,0.30716 0.04496,0.45992 l -1.35754,1.26659 c -0.137654,0.12832 -0.198919,0.31894 -0.162263,0.50333 0.03666,0.18511 0.166494,0.33694 0.342614,0.40308 l 1.735293,0.64854 c 0.04314,0.15023 0.08882,0.29958 0.135912,0.44803 l -1.082622,1.50378 c -0.109993,0.15312 -0.133221,0.35143 -0.06098,0.52504 0.07224,0.17432 0.229134,0.29883 0.414961,0.32866 l 1.829346,0.29765 c 0.07152,0.13875 0.145176,0.27564 0.220659,0.41186 l -0.769463,1.68672 c -0.07835,0.17146 -0.06206,0.37091 0.04289,0.52762 0.104958,0.15707 0.283509,0.24888 0.470773,0.24133 l 1.856219,-0.0651 c 0.09669,0.12077 0.193802,0.23903 0.293005,0.35657 l -0.425816,1.80867 c -0.04314,0.18331 0.01106,0.37515 0.144696,0.5085 0.132633,0.13407 0.325858,0.1873 0.509529,0.14417 l 1.808157,-0.42581 c 0.117541,0.0999 0.236519,0.19688 0.356568,0.29249 l -0.06459,1.85725 c -0.0072,0.18798 0.08462,0.36633 0.24133,0.47129 0.155995,0.10459 0.35565,0.12072 0.5271,0.0424 l 1.687234,-0.76895 c 0.135864,0.0755 0.272444,0.14861 0.410827,0.22015 l 0.298174,1.82882 c 0.03019,0.18619 0.154694,0.34344 0.328661,0.41497 0.173606,0.0722 0.373308,0.0492 0.526068,-0.0605 l 1.502749,-1.08314 c 0.148449,0.0471 0.297791,0.0933 0.448034,0.13642 l 0.649058,1.73478 c 0.06578,0.17612 0.217966,0.30616 0.403074,0.3421 0.184751,0.0374 0.37501,-0.0242 0.50333,-0.16226 l 1.266071,-1.35754 c 0.152768,0.0176 0.306602,0.0323 0.460439,0.046 l 0.977717,1.57923 c 0.09848,0.15922 0.273645,0.25734 0.461986,0.25735 0.188347,0 0.363146,-0.0978 0.461989,-0.25735 l 0.977718,-1.57923 c 0.153836,-0.0137 0.307678,-0.0284 0.460438,-0.046 l 1.265555,1.35754 c 0.128318,0.13802 0.31894,0.19963 0.503328,0.16226 0.18511,-0.0363 0.337301,-0.16598 0.403076,-0.3421 l 0.649058,-1.73478 c 0.150238,-0.0431 0.299587,-0.0893 0.448032,-0.13642 l 1.50327,1.08314 c 0.152765,0.10962 0.351941,0.1327 0.525547,0.0605 0.173966,-0.0715 0.298469,-0.22914 0.328663,-0.41497 l 0.298172,-1.82882 c 0.138023,-0.0715 0.274603,-0.14575 0.410829,-0.22015 l 1.687235,0.76895 c 0.17145,0.0784 0.370745,0.0622 0.5271,-0.0424 0.156715,-0.10496 0.248161,-0.28295 0.241329,-0.47129 l -0.0646,-1.85725 c 0.120049,-0.096 0.238874,-0.19257 0.35605,-0.29249 l 1.808159,0.42581 c 0.183672,0.0431 0.376381,-0.0101 0.509011,-0.14417 0.133707,-0.13336 0.187828,-0.32519 0.144695,-0.5085 l -0.425815,-1.80867 c 0.0992,-0.11755 0.196882,-0.2358 0.292489,-0.35657 l 1.857247,0.0651 c 0.18727,0.007 0.36618,-0.0842 0.47078,-0.24133 0.10495,-0.15671 0.12109,-0.35616 0.0424,-0.52762 l -0.76895,-1.68672 c 0.0751,-0.13623 0.14897,-0.27311 0.22014,-0.41186 l 1.82935,-0.29765 c 0.18618,-0.0298 0.34307,-0.15435 0.41496,-0.32866 0.0719,-0.17361 0.0494,-0.37192 -0.061,-0.52504 l -1.08262,-1.50378 c 0.0467,-0.14845 0.0924,-0.29779 0.13591,-0.44804 l 1.73529,-0.64853 c 0.17648,-0.0661 0.30615,-0.21797 0.3421,-0.40308 0.0374,-0.18475 -0.0242,-0.37501 -0.16226,-0.50333 l -1.35703,-1.26659 c 0.0166,-0.15277 0.0316,-0.30644 0.045,-0.45992 l 1.57923,-0.97772 c 0.15995,-0.0985 0.25735,-0.27364 0.25735,-0.46198 0,-0.18835 -0.0969,-0.36315 -0.25683,-0.46199 l -1.57975,-0.97772 c -0.0132,-0.15384 -0.0284,-0.30716 -0.045,-0.45992 l 1.35754,-1.26607 c 0.13803,-0.12869 0.19966,-0.31894 0.16227,-0.50333 -0.0363,-0.18511 -0.16613,-0.33782 -0.34262,-0.40359 l -1.73478,-0.64854 c -0.0435,-0.15024 -0.0892,-0.29959 -0.1359,-0.44804 l 1.0821,-1.50327 c 0.11034,-0.15276 0.13287,-0.35122 0.061,-0.52554 -0.0719,-0.17361 -0.22862,-0.29812 -0.41445,-0.32867 l -1.82986,-0.29765 c -0.0712,-0.13875 -0.14487,-0.27532 -0.21962,-0.41083 l 0.76894,-1.68724 c 0.0787,-0.1718 0.062,-0.37213 -0.0429,-0.52813 -0.1046,-0.15671 -0.28171,-0.248 -0.47077,-0.24081 l -1.856736,0.0646 c -0.09597,-0.12006 -0.193442,-0.23924 -0.293005,-0.35606 l 0.426331,-1.80867 c 0.04312,-0.18367 -0.01106,-0.37566 -0.144692,-0.50901 -0.132636,-0.13299 -0.325343,-0.18835 -0.509014,-0.14521 l -1.808159,0.42633 c -0.117171,-0.0992 -0.236157,-0.19704 -0.356566,-0.29301 l 0.06511,-1.85673 c 0.0072,-0.18799 -0.08462,-0.36706 -0.241328,-0.47129 -0.157065,-0.10496 -0.355648,-0.12037 -0.5271,-0.0424 l -1.687235,0.76895 c -0.136231,-0.0747 -0.272804,-0.14861 -0.410826,-0.22014 l -0.298691,-1.82987 c -0.03019,-0.18546 -0.154178,-0.34307 -0.328144,-0.41496 -0.173607,-0.0722 -0.37279,-0.049 -0.52555,0.061 l -1.504302,1.08262 c -0.148079,-0.0471 -0.296757,-0.0928 -0.447,-0.13591 l -0.649058,-1.73529 c -0.06578,-0.17684 -0.217966,-0.30647 -0.403074,-0.34313 -0.18475,-0.0363 -0.37501,0.0249 -0.50333,0.16226 l -1.266071,1.35857 c -0.152768,-0.0169 -0.306443,-0.0324 -0.459922,-0.045 l -0.977718,-1.57974 c -0.09885,-0.15995 -0.273642,-0.25735 -0.461986,-0.25735 z m -0.03462,3.32693 c 0.285795,0.007 0.569574,0.12251 0.782897,0.34571 0.425932,0.4475 0.409565,1.15517 -0.03721,1.58182 -0.445699,0.42701 -1.152584,0.41045 -1.579232,-0.0367 -0.425572,-0.44678 -0.409721,-1.15429 0.03669,-1.5813 0.222848,-0.21351 0.511056,-0.31619 0.79685,-0.30954 z m 2.581754,1.81332 c 3.921496,0.73728 7.257709,3.13355 9.251633,6.43217 0.0325,0.0538 0.0529,0.10844 0.06563,0.16329 0.02738,0.0466 0.05739,0.0915 0.08423,0.1385 l -1.317747,2.97605 c -0.227523,0.51506 0.0047,1.11741 0.518314,1.34565 l 2.536796,1.12706 c 0.0087,0.0889 0.01262,0.17888 0.01963,0.2682 0.02365,0.0538 0.03877,0.11107 0.04289,0.1726 0.02074,0.30948 0.03152,0.62165 0.03152,0.93638 0,3.7549 -1.499743,7.15967 -3.933092,9.64747 -0.01027,-0.007 -0.02731,-0.0136 -0.03824,-0.0202 -5.29e-4,5.3e-4 -5.29e-4,0.001 -0.0011,0.002 l -2.363123,-0.50799 c -0.550293,-0.11789 -1.09185,0.23204 -1.209746,0.78341 l -0.552937,2.58021 c 0.0013,0.0255 0.0011,0.061 0.0026,0.0837 -1.738082,0.78988 -3.66893,1.22938 -5.702493,1.22938 -2.069883,0 -4.032906,-0.45559 -5.794994,-1.27227 0.0079,-0.0175 0.01341,-0.0392 0.02066,-0.0579 -0.0011,-5.3e-4 -0.0021,-0.001 -0.0031,-0.002 l -0.560689,-2.61638 c -0.117891,-0.55065 -0.659294,-0.90167 -1.209228,-0.78342 l -2.309937,0.4961 c -0.0063,-0.006 -0.01233,-0.0131 -0.0186,-0.0196 -0.02209,0.009 -0.043,0.0173 -0.06511,0.0258 -2.388126,-2.48063 -3.856612,-5.85312 -3.856612,-9.56841 0,-0.51147 0.06102,-1.00003 0.11524,-1.49707 0.795547,-0.34599 1.543903,-0.68505 2.381177,-1.05714 0.332867,-0.20298 0.576087,-0.42053 0.625284,-0.68738 0.01315,-0.0272 0.02029,-0.0715 0.02687,-0.10431 0.007,-0.0418 0.0081,-0.0845 0.0098,-0.12712 -0.0024,-0.15958 -0.118469,-0.42349 -0.201685,-0.64817 -0.349978,-0.90315 -0.853047,-1.66124 -1.274588,-2.48562 1.947722,-3.56417 5.422048,-6.17448 9.544121,-6.95151 0.0029,0.0112 0.0081,0.0241 0.01138,0.0357 0.0087,-0.002 0.01714,-0.004 0.02582,-0.006 l 1.72031,1.80454 c 0.388906,0.40724 1.032825,0.42234 1.439704,0.0331 l 1.924947,-1.84123 c 7.94e-4,1.6e-4 0.0016,2.7e-4 0.0026,5.3e-4 0.0036,-0.009 0.0085,-0.0194 0.01188,-0.0284 z m -15.953551,8.29975 c 0.435296,-0.007 0.853139,0.24134 1.040763,0.66508 0.250166,0.56467 -0.0045,1.22659 -0.568442,1.4764 -0.563951,0.25052 -1.223645,-0.005 -1.473811,-0.56948 -0.250166,-0.56503 0.004,-1.22535 0.567923,-1.47588 0.141079,-0.0625 0.288467,-0.0936 0.433567,-0.0961 z m 26.691911,0.0543 c 0.145076,0.003 0.29206,0.0335 0.433049,0.0961 0.563953,0.25017 0.818603,0.91173 0.568433,1.4764 -0.2498,0.56503 -0.910011,0.82 -1.474322,0.56947 -0.563234,-0.25016 -0.817732,-0.91152 -0.567923,-1.47691 0.187354,-0.4235 0.605534,-0.67262 1.040763,-0.66507 z m -21.631754,15.68845 c 0.519541,-0.005 0.988518,0.35602 1.101741,0.8847 0.129037,0.60385 -0.254543,1.19921 -0.857314,1.3286 -0.603128,0.13011 -1.196776,-0.25465 -1.326533,-0.85886 -0.129038,-0.60529 0.254182,-1.19952 0.857313,-1.32963 0.07539,-0.0161 0.150572,-0.0242 0.224793,-0.0248 z m 16.571081,0.0543 c 0.07418,8e-4 0.149445,0.009 0.22479,0.0253 0.603131,0.12904 0.987227,0.72476 0.85783,1.32861 -0.129387,0.60384 -0.723762,0.98841 -1.326534,0.85937 -0.603131,-0.1301 -0.986708,-0.72419 -0.85731,-1.32912 0.112905,-0.52868 0.581927,-0.88947 1.101224,-0.88418 z"
       id="path3"
       sodipodi:nodetypes="ccccccccccccccccccccccccccccccccccccccccscccccccccccccccccccccccccccccccccccccccccccccccccccccccccccccccccccccccccccccccscccccccccccccccccccccccccccccccccccccccccccccccccccccccccscccccccsccccccccscccccccccccccccccccccccccccccccccccccccccccc" />
  </g>
</svg>
