<?xml version="1.0" encoding="UTF-8" standalone="no"?>
<!-- Created with Inkscape (http://www.inkscape.org/) -->

<svg
   xmlns:dc="http://purl.org/dc/elements/1.1/"
   xmlns:cc="http://creativecommons.org/ns#"
   xmlns:rdf="http://www.w3.org/1999/02/22-rdf-syntax-ns#"
   xmlns:svg="http://www.w3.org/2000/svg"
   xmlns="http://www.w3.org/2000/svg"
   xmlns:sodipodi="http://sodipodi.sourceforge.net/DTD/sodipodi-0.dtd"
   xmlns:inkscape="http://www.inkscape.org/namespaces/inkscape"
   width="39.619965mm"
   height="39.620491mm"
   viewBox="0 0 39.619965 39.620491"
   version="1.1"
   id="svg8232"
   inkscape:version="0.92.2 2405546, 2018-03-11"
   sodipodi:docname="rustodoro.svg">
  <defs
     id="defs8226" />
  <sodipodi:namedview
     id="base"
     pagecolor="#ffffff"
     bordercolor="#666666"
     borderopacity="1.0"
     inkscape:pageopacity="0.0"
     inkscape:pageshadow="2"
     inkscape:zoom="2.8"
     inkscape:cx="42.394437"
     inkscape:cy="78.003285"
     inkscape:document-units="mm"
     inkscape:current-layer="g862"
     showgrid="false"
     fit-margin-left="1"
     fit-margin-top="1"
     fit-margin-right="1"
     fit-margin-bottom="1"
     inkscape:window-width="1600"
     inkscape:window-height="791"
     inkscape:window-x="0"
     inkscape:window-y="31"
     inkscape:window-maximized="1" />
  <metadata
     id="metadata8229">
    <rdf:RDF>
      <cc:Work
         rdf:about="">
        <dc:format>image/svg+xml</dc:format>
        <dc:type
           rdf:resource="http://purl.org/dc/dcmitype/StillImage" />
        <dc:title />
      </cc:Work>
    </rdf:RDF>
  </metadata>
  <g
     inkscape:label="Layer 1"
     inkscape:groupmode="layer"
     id="layer1"
     transform="translate(-66.368604,-127.5112)">
    <g
       id="g862"
       transform="matrix(1.1752101,0,0,1.1752101,-15.238686,-27.539491)">
      <circle
         transform="rotate(150)"
         id="path8073-3"
         style="fill:none;fill-opacity:0.92156863;stroke:#ff0000;stroke-width:1.52333534;stroke-linejoin:round;stroke-miterlimit:4;stroke-dasharray:none;stroke-opacity:1"
         cx="0.25362536"
         cy="-173.03357"
         r="13.306854" />
      <circle
         transform="rotate(150)"
         id="path8073"
         style="fill:#ff5c74;fill-opacity:0.92156863;stroke:none;stroke-width:1.52333534;stroke-linejoin:round;stroke-miterlimit:4;stroke-dasharray:none;stroke-opacity:1"
         cx="0.25362492"
         cy="-173.03357"
         r="13.306854" />
      <path
         d="m 97.51218,149.87075 -0.939795,-0.58176 c -0.0079,-0.0915 -0.0169,-0.18287 -0.02672,-0.27376 l 0.807617,-0.7533 c 0.08212,-0.0766 0.118914,-0.18992 0.09667,-0.29963 -0.0216,-0.11016 -0.09881,-0.20084 -0.203829,-0.23999 l -1.032402,-0.38604 c -0.02588,-0.0895 -0.05302,-0.17818 -0.08084,-0.26651 l 0.643991,-0.89445 c 0.06566,-0.0909 0.07914,-0.20916 0.03636,-0.3129 -0.04278,-0.1033 -0.136242,-0.17731 -0.246821,-0.19549 l -1.088653,-0.17709 c -0.04237,-0.0825 -0.08641,-0.16383 -0.130892,-0.24446 l 0.457491,-1.00418 c 0.04683,-0.10223 0.03719,-0.22115 -0.02523,-0.31398 -0.06223,-0.0932 -0.16768,-0.14778 -0.280186,-0.14351 l -1.104903,0.0385 c -0.05711,-0.0714 -0.115283,-0.14223 -0.174527,-0.21173 l 0.253877,-1.07625 c 0.02566,-0.10929 -0.0066,-0.22373 -0.08619,-0.30308 -0.07892,-0.0791 -0.193562,-0.11186 -0.302855,-0.0862 l -1.076032,0.25366 c -0.06972,-0.059 -0.14052,-0.11741 -0.212171,-0.17452 l 0.03871,-1.10491 c 0.0043,-0.11186 -0.05027,-0.21815 -0.143515,-0.28018 -0.09347,-0.0625 -0.21174,-0.0719 -0.313761,-0.0255 l -1.003957,0.45771 c -0.08106,-0.0446 -0.162335,-0.0886 -0.244464,-0.13111 l -0.177523,-1.08887 c -0.01796,-0.11037 -0.09197,-0.20404 -0.195486,-0.24681 -0.103305,-0.0429 -0.221793,-0.0291 -0.312693,0.0364 l -0.895091,0.644 c -0.08812,-0.028 -0.176665,-0.055 -0.266067,-0.0806 l -0.386054,-1.03263 c -0.03914,-0.10523 -0.129826,-0.18244 -0.239975,-0.20425 -0.109934,-0.0217 -0.223076,0.015 -0.299433,0.0967 l -0.753287,0.80826 c -0.0909,-0.0101 -0.18244,-0.0192 -0.273767,-0.0267 l -0.581756,-0.94 c -0.05881,-0.0952 -0.162976,-0.15314 -0.275049,-0.15314 -0.112074,0 -0.216234,0.0579 -0.274837,0.15314 l -0.581754,0.94 c -0.09154,0.007 -0.183084,0.0166 -0.273982,0.0267 l -0.753501,-0.80826 c -0.07635,-0.0817 -0.189713,-0.11827 -0.299434,-0.0967 -0.110148,0.022 -0.200833,0.099 -0.239974,0.20425 l -0.386054,1.03263 c -0.0894,0.0257 -0.177949,0.0528 -0.266281,0.0806 l -0.894877,-0.644 c -0.0909,-0.0657 -0.209389,-0.0796 -0.312907,-0.0364 -0.103305,0.0427 -0.177521,0.13644 -0.195486,0.24681 l -0.177522,1.08887 c -0.08213,0.0425 -0.163405,0.0864 -0.244466,0.13111 l -1.003955,-0.45771 c -0.102022,-0.0466 -0.220938,-0.037 -0.313762,0.0255 -0.09325,0.0621 -0.147791,0.16832 -0.143514,0.28018 l 0.03849,1.10491 c -0.07144,0.0571 -0.142232,0.1155 -0.21217,0.17452 l -1.076034,-0.25366 c -0.109292,-0.0255 -0.223933,0.007 -0.303068,0.0862 -0.07957,0.0794 -0.111861,0.19379 -0.08619,0.30308 l 0.253448,1.07625 c -0.05881,0.0697 -0.116992,0.1403 -0.174098,0.21173 l -1.104908,-0.0385 c -0.111432,-0.004 -0.217943,0.0503 -0.280184,0.14351 -0.06246,0.0928 -0.07187,0.21175 -0.02545,0.31398 l 0.457705,1.00418 c -0.04449,0.0806 -0.08855,0.1619 -0.131109,0.24446 l -1.088652,0.17709 c -0.110576,0.018 -0.203828,0.092 -0.246817,0.19549 -0.04278,0.10374 -0.02888,0.22201 0.03636,0.3129 l 0.643994,0.89445 c -0.02802,0.0884 -0.05517,0.1771 -0.08085,0.26651 l -1.032616,0.38604 c -0.104801,0.0392 -0.182012,0.12983 -0.203828,0.23999 -0.02181,0.10992 0.01476,0.22308 0.09667,0.29963 l 0.807827,0.7533 c -0.01005,0.0909 -0.01903,0.18244 -0.02674,0.27376 l -0.939792,0.58176 c -0.09518,0.0587 -0.153138,0.16276 -0.153138,0.27505 0,0.11228 0.05797,0.21623 0.153138,0.27483 l 0.939792,0.58176 c 0.0077,0.0915 0.01668,0.18287 0.02674,0.27377 l -0.807827,0.7535 c -0.08192,0.0763 -0.11849,0.18971 -0.09667,0.29943 0.02182,0.11015 0.09903,0.20062 0.203828,0.23997 l 1.032616,0.38605 c 0.02567,0.0894 0.05283,0.17817 0.08085,0.26651 l -0.643994,0.89466 c -0.06545,0.0911 -0.07935,0.20938 -0.03636,0.31269 0.04299,0.10374 0.136455,0.17773 0.24703,0.19548 l 1.088439,0.1771 c 0.04256,0.0825 0.08619,0.16382 0.131109,0.2449 l -0.457705,1.00374 c -0.04663,0.10202 -0.037,0.22071 0.02545,0.31398 0.06246,0.0935 0.168752,0.148 0.280184,0.14351 l 1.104479,-0.0387 c 0.05753,0.0718 0.115496,0.14224 0.174527,0.21216 l -0.253448,1.07647 c -0.02567,0.10908 0.0066,0.22309 0.08619,0.30243 0.07892,0.0798 0.193776,0.11164 0.303068,0.086 l 1.076034,-0.25345 c 0.06994,0.0595 0.140733,0.11721 0.21217,0.1741 l -0.03849,1.10512 c -0.0043,0.11185 0.05027,0.21794 0.143514,0.2804 0.09282,0.0622 0.21174,0.0717 0.313762,0.025 l 1.003955,-0.45749 c 0.08085,0.0449 0.162122,0.0886 0.244466,0.13111 l 0.177522,1.08822 c 0.01796,0.1108 0.09197,0.20447 0.195486,0.24704 0.103305,0.043 0.222008,0.0291 0.312907,-0.0361 l 0.894449,-0.64443 c 0.08833,0.028 0.177093,0.0553 0.266495,0.081 l 0.386054,1.0322 c 0.03914,0.1048 0.129827,0.18243 0.239975,0.20383 0.109934,0.0223 0.223076,-0.0145 0.299433,-0.0967 l 0.753501,-0.80783 c 0.0909,0.0104 0.18244,0.0192 0.273981,0.0274 l 0.581755,0.93979 c 0.05859,0.0947 0.162763,0.15314 0.274836,0.15314 0.112074,0 0.216234,-0.0582 0.275052,-0.15314 l 0.581755,-0.93979 c 0.09154,-0.008 0.182867,-0.0169 0.273766,-0.0274 l 0.753287,0.80783 c 0.07635,0.0821 0.189713,0.11892 0.299434,0.0967 0.110148,-0.0216 0.200833,-0.099 0.239974,-0.20383 l 0.386054,-1.0322 c 0.0894,-0.0257 0.178162,-0.053 0.266495,-0.081 l 0.894663,0.64443 c 0.0909,0.0653 0.209389,0.0791 0.312693,0.0361 0.103519,-0.0426 0.17752,-0.13646 0.195487,-0.24704 l 0.177521,-1.08822 c 0.08213,-0.0425 0.163404,-0.0868 0.244465,-0.13111 l 1.003957,0.45749 c 0.102021,0.0466 0.220723,0.0372 0.313761,-0.025 0.09325,-0.0625 0.147578,-0.16833 0.143515,-0.2804 l -0.03849,-1.10512 c 0.07144,-0.0571 0.142231,-0.11465 0.211958,-0.1741 l 1.076031,0.25345 c 0.109294,0.0257 0.223933,-0.006 0.302857,-0.086 0.07957,-0.0793 0.111858,-0.19335 0.08619,-0.30243 l -0.253445,-1.07647 c 0.05902,-0.07 0.117206,-0.14031 0.174099,-0.21218 l 1.104905,0.0387 c 0.111434,0.004 0.217947,-0.05 0.280183,-0.14351 0.06246,-0.0932 0.07207,-0.21196 0.02524,-0.31398 l -0.457492,-1.00374 c 0.04469,-0.0811 0.08855,-0.16234 0.130894,-0.24489 l 1.088653,-0.1771 c 0.110791,-0.0178 0.20404,-0.0917 0.246819,-0.19548 0.04278,-0.10332 0.02928,-0.22158 -0.03636,-0.3127 l -0.643991,-0.89466 c 0.02779,-0.0884 0.05498,-0.17709 0.08084,-0.2665 l 1.032403,-0.38606 c 0.105014,-0.0393 0.182441,-0.12982 0.203827,-0.23997 0.02226,-0.10993 -0.01458,-0.22308 -0.09667,-0.29943 l -0.807617,-0.7535 c 0.0098,-0.0909 0.0188,-0.18244 0.02672,-0.27377 l 0.939796,-0.58175 c 0.09517,-0.0586 0.153135,-0.16277 0.153135,-0.27484 0,-0.11207 -0.05772,-0.21623 -0.152922,-0.27505 z m -6.290017,7.79616 c -0.358891,-0.0774 -0.587101,-0.43119 -0.510105,-0.79115 0.07678,-0.35953 0.430328,-0.58838 0.789006,-0.51096 0.358892,0.0768 0.587529,0.43119 0.510533,0.7905 -0.077,0.35932 -0.430756,0.58839 -0.789434,0.51161 z m -0.319323,-2.15977 c -0.327451,-0.0701 -0.649555,0.13816 -0.719709,0.46626 l -0.333653,1.55705 c -1.029621,0.46734 -2.173027,0.72698 -3.377174,0.72698 -1.231739,0 -2.399954,-0.27248 -3.44797,-0.75971 l -0.333439,-1.55704 c -0.07015,-0.32766 -0.392258,-0.53642 -0.719495,-0.46605 l -1.37461,0.29515 c -0.25516,-0.26264 -0.492567,-0.5424 -0.710726,-0.83776 h 6.688474 c 0.07571,0 0.126189,-0.0137 0.126189,-0.0825 v -2.36596 c 0,-0.0689 -0.05048,-0.0825 -0.126189,-0.0825 h -1.956152 v -1.49973 h 2.115708 c 0.193134,0 1.032615,0.0552 1.301035,1.12822 0.08406,0.33002 0.268634,1.40348 0.394823,1.74719 0.125762,0.38542 0.637792,1.15538 1.183401,1.15538 h 3.332902 c 0.03786,0 0.07828,-0.004 0.120843,-0.0119 -0.231206,0.31419 -0.484868,0.61148 -0.757993,0.88931 z m -9.250763,2.12725 c -0.358892,0.0775 -0.712223,-0.15142 -0.789434,-0.51095 -0.07678,-0.36018 0.151428,-0.71372 0.510319,-0.79115 0.358892,-0.0767 0.712436,0.15207 0.789434,0.5116 0.07678,0.35933 -0.151642,0.71352 -0.510319,0.7905 z m -2.537266,-10.28872 c 0.14886,0.33601 -0.0025,0.72977 -0.338145,0.87841 -0.335579,0.14908 -0.728264,-0.003 -0.877125,-0.33879 -0.14886,-0.33621 0.0025,-0.72932 0.338146,-0.8784 0.335793,-0.14886 0.728263,0.003 0.877124,0.33878 z m -0.779808,1.84858 1.43193,-0.6363 c 0.305849,-0.13582 0.444017,-0.49428 0.308202,-0.80077 l -0.294941,-0.66688 h 1.159873 v 5.22809 h -2.340066 c -0.202973,-0.7135 -0.311839,-1.46657 -0.311839,-2.24488 0,-0.2971 0.01604,-0.59075 0.04685,-0.87926 z m 6.283811,-0.50776 v -1.54101 h 2.762054 c 0.142658,0 1.007378,0.1649 1.007378,0.81147 0,0.53684 -0.663244,0.72932 -1.20864,0.72932 h -2.560792 z m 10.037844,1.38702 c 0,0.20447 -0.0075,0.4068 -0.02246,0.60763 h -0.839695 c -0.08406,0 -0.117848,0.0551 -0.117848,0.13753 v 0.38563 c 0,0.9077 -0.511817,1.10511 -0.960323,1.15537 -0.42712,0.0481 -0.900653,-0.1788 -0.959042,-0.44016 -0.251951,-1.41717 -0.671799,-1.71982 -1.334829,-2.24275 0.822799,-0.52252 1.678963,-1.29334 1.678963,-2.3251 0,-1.1141 -0.763768,-1.81584 -1.284353,-2.15998 -0.730402,-0.48145 -1.539085,-0.5779 -1.757243,-0.5779 h -8.684191 c 1.177627,-1.3143 2.773604,-2.24533 4.578756,-2.58411 l 1.023633,1.07389 c 0.231418,0.24233 0.614692,0.25132 0.856805,0.0198 l 1.14533,-1.09548 c 2.399955,0.44679 4.43182,1.94074 5.602817,3.99036 l -0.784087,1.77093 c -0.135385,0.3065 0.0028,0.66496 0.308417,0.80077 l 1.509569,0.67052 c 0.02609,0.26798 0.03979,0.53875 0.03979,0.81317 z m -8.678206,-8.95732 c 0.265213,-0.25409 0.685916,-0.24404 0.939793,0.0217 0.253448,0.26627 0.243823,0.68741 -0.02203,0.94129 -0.265212,0.25408 -0.685916,0.24425 -0.939793,-0.0218 -0.253234,-0.26585 -0.243609,-0.68698 0.02202,-0.94107 z m 7.780977,6.26178 c 0.148648,-0.33601 0.541331,-0.48765 0.876911,-0.33857 0.335578,0.14885 0.487005,0.5424 0.338144,0.87841 -0.148646,0.33621 -0.541331,0.48785 -0.877124,0.33879 -0.335149,-0.14888 -0.486578,-0.5422 -0.337931,-0.87863 z"
         id="path3-6"
         inkscape:connector-curvature="0"
         style="stroke-width:0.2138806;fill:#ff556b;fill-opacity:1" />
      <path
         transform="matrix(0.72639787,-0.14588674,0.08232015,0.40988775,19.529426,120.12297)"
         inkscape:transform-center-y="-0.14183427"
         inkscape:transform-center-x="-0.82804356"
         d="m 85.927146,69.954535 -8.044568,0.409399 3.452073,7.277767 -4.376835,-6.762101 -4.576694,6.628466 3.667734,-7.171501 -8.028767,-0.6493 8.044568,-0.4094 -3.452073,-7.277766 4.376835,6.762101 4.576694,-6.628466 -3.667734,7.1715 z"
         inkscape:randomized="0"
         inkscape:rounded="0"
         inkscape:flatsided="false"
         sodipodi:arg2="0.53852304"
         sodipodi:arg1="0.014924265"
         sodipodi:r2="1.0588179"
         sodipodi:r1="8.9545259"
         sodipodi:cy="69.8209"
         sodipodi:cx="76.973618"
         sodipodi:sides="6"
         id="path8157"
         style="fill:#13a462;fill-opacity:1;stroke:#13a462;stroke-width:2.73709059;stroke-linecap:butt;stroke-linejoin:bevel;stroke-miterlimit:4;stroke-dasharray:none;stroke-opacity:1"
         sodipodi:type="star" />
    </g>
  </g>
</svg>
